<svg width="585" height="585" viewBox="0 0 585 585" fill="none" xmlns="http://www.w3.org/2000/svg">
<rect width="585" height="585" fill="#FFCA00"/>
<path d="M471.5 231.538L412.9 217.538C405.7 196.238 393.9 179.238 378.6 170.738C338.9 148.638 253.6 195.438 189.8 225.238C149.7 243.938 115 248.338 115 248.338C115 248.338 167.9 442.538 306.7 417.838C399.8 401.338 429.5 311.838 419.4 243.938L471.5 231.538ZM253.6 315.238C208.1 322.138 190.8 267.538 190.8 267.538C190.8 267.538 214.1 272.838 225.9 265.038C243.9 253.038 264.2 239.538 277.2 245.738C298.4 255.838 299.1 308.338 253.6 315.238ZM355.4 226.438C348.5 228.338 341.3 223.838 339.3 216.538C337.3 209.138 341.2 201.638 348.1 199.738C355 197.838 362.2 202.338 364.2 209.638C366.2 217.038 362.3 224.538 355.4 226.438Z" fill="white"/>
</svg>
